<svg width="18" height="18" viewBox="0 0 18 18" xmlns="http://www.w3.org/2000/svg">
<path d="M5.82739 7.53126L11.952 1.41683C12.955 0.4166 14.5805 0.4166 15.5834 1.41683L16.581 2.41278C17.5841 3.41417 17.5841 5.03832 16.581 6.03864L10.4272 12.1823C9.97822 12.6305 9.36945 12.8824 8.73455 12.8824H5.66458C5.31913 12.8824 5.04153 12.5983 5.05012 12.2535L5.12716 9.16061C5.14261 8.5481 5.3932 7.96473 5.82739 7.53126ZM15.7118 3.28058L14.7146 2.2851C14.1916 1.76352 13.3438 1.76352 12.821 2.28486L12.3172 2.78785L15.208 5.67382L15.712 5.1706C16.2347 4.64935 16.2347 3.80262 15.7118 3.28058ZM14.3387 6.54163L11.4479 3.65565L6.69664 8.39907C6.48546 8.6099 6.36358 8.89362 6.35607 9.19132L6.29414 11.6544L8.73455 11.6551C9.00473 11.6551 9.26522 11.5613 9.47247 11.3917L9.55791 11.3145L14.3387 6.54163ZM8.44566 0.698238C8.78513 0.698238 9.06032 0.972969 9.06032 1.31187C9.06032 1.62252 8.82908 1.87926 8.52907 1.9199L8.44566 1.9255H5.38143C3.31493 1.9255 1.97641 3.29406 1.89946 5.41936L1.89596 5.61464V12.4169C1.89596 14.5905 3.16939 16.0201 5.19521 16.1023L5.38143 16.1061H12.613C14.6846 16.1061 16.0191 14.7404 16.0958 12.6125L16.0993 12.4169V9.12132C16.0993 8.78243 16.3745 8.5077 16.7139 8.5077C17.0251 8.5077 17.2823 8.73854 17.323 9.03806L17.3286 9.12132V12.4169C17.3286 15.2495 15.5313 17.2411 12.8047 17.3302L12.613 17.3333H5.38143C2.61275 17.3333 0.75268 15.4059 0.669561 12.6132L0.666656 12.4169V5.61464C0.666656 2.78481 2.46854 0.790543 5.19007 0.701356L5.38143 0.698238H8.44566Z"/>
</svg>
