<svg width="30" height="30" viewBox="0 0 30 30" fill="none" xmlns="http://www.w3.org/2000/svg">
<path fill-rule="evenodd" clip-rule="evenodd" d="M25.4243 9.57413C26.2618 10.2229 26.7755 11.1866 26.863 12.2354L26.8755 12.4866V22.6229C26.8755 25.2354 24.8118 27.3604 22.2255 27.4979H19.738C18.5493 27.4741 17.588 26.5491 17.5005 25.3866L17.488 25.2104V21.6366C17.488 21.2479 17.1993 20.9241 16.813 20.8604L16.7005 20.8479H13.3618C12.963 20.8604 12.638 21.1479 12.588 21.5229L12.5755 21.6366V25.1991C12.5755 25.2729 12.5618 25.3604 12.5505 25.4229L12.538 25.4491L12.5243 25.5354C12.3755 26.5991 11.5005 27.4104 10.413 27.4866L10.2505 27.4979H8.013C5.4005 27.4979 3.263 25.4491 3.1255 22.8729V12.4866C3.13675 11.4229 3.6005 10.4354 4.3755 9.74788L12.163 3.48538C13.7505 2.22413 15.9755 2.17413 17.6118 3.33538L17.813 3.48538L25.4243 9.57413ZM25.1243 22.8229L25.138 22.6229V12.4979C25.1243 11.9616 24.9005 11.4604 24.513 11.0866L24.3505 10.9479L16.7255 4.84788C15.7755 4.08538 14.4255 4.04913 13.4255 4.71038L13.2368 4.84788L5.63675 10.9741C5.2005 11.2979 4.938 11.7854 4.8755 12.2979L4.86175 12.4979V22.6229C4.86175 24.2854 6.16175 25.6479 7.813 25.7479H10.2505C10.5255 25.7479 10.763 25.5616 10.7993 25.2991L10.8255 25.0741L10.838 25.0104V21.6366C10.838 20.2991 11.863 19.2116 13.1755 19.1104H16.7005C18.0368 19.1104 19.1243 20.1366 19.2255 21.4491V25.2104C19.2255 25.4729 19.413 25.6991 19.663 25.7479H21.9868C23.6618 25.7479 25.0243 24.4616 25.1243 22.8229Z"/>
</svg>
