<svg width="24" height="24" viewBox="0 0 24 24" fill="none" xmlns="http://www.w3.org/2000/svg">
<path fill-rule="evenodd" clip-rule="evenodd" d="M21.7046 4.59146C22.0162 3.1858 20.709 1.9174 19.2937 2.327L3.63716 6.88273L3.48607 6.93296C2.01648 7.48603 1.791 9.53278 3.16747 10.3801L9.643 14.366L13.5388 20.8201L13.6263 20.9533C14.5395 22.2328 16.5618 21.9229 17.0229 20.3719L21.668 4.73243L21.7046 4.59146ZM19.7846 3.75315C20.0734 3.72214 20.3202 4.00304 20.2303 4.30465L15.585 19.9447L15.5545 20.0214C15.4093 20.3069 14.9986 20.3359 14.823 20.045L11.135 13.936L16.3875 8.64967L16.4598 8.56531C16.6767 8.27098 16.6511 7.85439 16.384 7.58902L16.2996 7.51668C16.0053 7.2998 15.5887 7.3254 15.3233 7.59255L10.078 12.872L3.95377 9.10276L3.88765 9.0531C3.64982 8.83644 3.72987 8.41773 4.05576 8.32314L19.7117 3.76757L19.7846 3.75315Z"/>
</svg>
