<svg width="24" height="24" viewBox="0 0 24 24" fill="none" xmlns="http://www.w3.org/2000/svg">
<path fill-rule="evenodd" clip-rule="evenodd" d="M10.8026 7.52069C10.8026 6.85969 11.3396 6.32269 11.9996 6.32269C12.6596 6.32269 13.1976 6.85969 13.1976 7.52069C13.1976 8.18169 12.6596 8.71869 11.9996 8.71869C11.3396 8.71869 10.8026 8.18169 10.8026 7.52069ZM10.8026 12.0002C10.8026 11.3392 11.3396 10.8022 11.9996 10.8022C12.6596 10.8022 13.1976 11.3392 13.1976 12.0002C13.1976 12.6612 12.6596 13.1982 11.9996 13.1982C11.3396 13.1982 10.8026 12.6612 10.8026 12.0002ZM11.9996 15.2812C11.3396 15.2812 10.8026 15.8182 10.8026 16.4792C10.8026 17.1402 11.3396 17.6772 11.9996 17.6772C12.6596 17.6772 13.1976 17.1402 13.1976 16.4792C13.1976 15.8182 12.6596 15.2812 11.9996 15.2812Z"/>
</svg>
