<svg width="26" height="26" viewBox="0 0 26 26" fill="none" xmlns="http://www.w3.org/2000/svg">
<path fill-rule="evenodd" clip-rule="evenodd" d="M2.375 8.48625C2.375 6.89625 3.675 5.60125 5.27125 5.60125H20.7288C22.3188 5.60125 23.6125 6.89625 23.6125 8.48625V12.3075C21.5588 13.5837 19.1912 14.4775 16.6987 14.9163C16.0137 13.5325 14.5887 12.625 12.9875 12.625C11.4 12.625 9.96875 13.5287 9.26375 14.905C6.78625 14.4687 4.4275 13.5787 2.375 12.3075V8.48625ZM11.38 2.375H14.6075C15.4475 2.375 16.1513 2.95125 16.36 3.72625H9.62625C9.83625 2.95125 10.5388 2.375 11.38 2.375ZM9.73 16.8762C10.205 16.9425 10.6388 16.65 10.7638 16.195C11.0425 15.18 11.9362 14.5 12.9875 14.5C14.0275 14.5 14.93 15.195 15.1825 16.19C15.29 16.61 15.6675 16.8975 16.0912 16.8975C16.1337 16.8975 16.1775 16.895 16.22 16.8887C19.4312 16.4437 22.49 15.3075 25.0675 13.6025C25.33 13.4275 25.4875 13.135 25.4875 12.82V8.48625C25.4875 5.86125 23.3525 3.72625 20.7288 3.72625H18.2575C18.0238 1.9125 16.485 0.5 14.6075 0.5H11.38C9.5025 0.5 7.965 1.91125 7.73 3.72625H5.27125C2.64 3.72625 0.5 5.86125 0.5 8.48625V12.82C0.5 13.135 0.6575 13.4287 0.92125 13.6025C3.495 15.3 6.54125 16.4312 9.73 16.8762ZM12.0564 17.2301V18.8476C12.0564 19.3651 12.4764 19.7851 12.9939 19.7851C13.5114 19.7851 13.9314 19.3651 13.9314 18.8476V17.2301C13.9314 16.7126 13.5114 16.2926 12.9939 16.2926C12.4764 16.2926 12.0564 16.7126 12.0564 17.2301ZM23.6357 17.2711C23.6732 16.7911 24.0645 16.4086 24.5557 16.4086C25.072 16.4086 25.4908 16.8274 25.4908 17.3436C25.4908 17.3516 25.4758 17.5441 25.4537 17.8299C25.3998 18.5266 25.3029 19.7776 25.2745 20.2599C25.2032 21.4324 24.7482 22.6286 24.057 23.4611C23.0945 24.6211 21.8682 25.1636 20.2008 25.1674C19.427 25.1686 16.2295 25.1699 13.0308 25.1699C9.83325 25.1699 6.6345 25.1686 5.862 25.1674C4.19325 25.1636 2.967 24.6211 2.0045 23.4599C1.3145 22.6286 0.85825 21.4324 0.78825 20.2599C0.759422 19.7846 0.664657 18.5627 0.610198 17.8605C0.586732 17.558 0.57075 17.3519 0.57075 17.3436C0.57075 16.8274 0.9895 16.4086 1.50575 16.4086C1.997 16.4086 2.38825 16.7911 2.42575 17.2711C2.42575 17.2711 2.61825 19.4574 2.6595 20.1474C2.70575 20.9111 3.01575 21.7424 3.44825 22.2624C4.06075 23.0011 4.73825 23.2899 5.8645 23.2924C7.4095 23.2949 18.6507 23.2949 20.197 23.2924C21.3245 23.2899 22.002 23.0011 22.6133 22.2636C23.047 21.7424 23.357 20.9111 23.4032 20.1474C23.4433 19.4574 23.6357 17.2711 23.6357 17.2711Z"/>
</svg>
