<svg width="28" height="22" viewBox="0 0 28 22" fill="none" xmlns="http://www.w3.org/2000/svg">
<path fill-rule="evenodd" clip-rule="evenodd" d="M13.9222 0.296875C10.7278 0.296875 8.16189 2.86275 8.16189 6.05719C8.16189 9.25256 10.7276 11.8186 13.9222 11.8186C17.1168 11.8186 19.6825 9.25256 19.6825 6.05719C19.6825 2.86275 17.1166 0.296875 13.9222 0.296875ZM13.9222 2.17188C16.0811 2.17188 17.8075 3.89829 17.8075 6.05719C17.8075 8.21709 16.0812 9.94365 13.9222 9.94365C11.7632 9.94365 10.0369 8.21709 10.0369 6.05719C10.0369 3.89829 11.7633 2.17188 13.9222 2.17188ZM6.86249 1.47422C7.38026 1.47422 7.79999 1.89395 7.79999 2.41172C7.79999 2.92949 7.38026 3.34922 6.86249 3.34922C5.37703 3.34922 4.17228 4.55344 4.17228 6.03828C4.17228 7.52312 5.37703 8.72734 6.86249 8.72734C7.38026 8.72734 7.79999 9.14708 7.79999 9.66484C7.79999 10.1826 7.38026 10.6023 6.86249 10.6023C4.34168 10.6023 2.29728 8.55884 2.29728 6.03828C2.29728 3.51772 4.34168 1.47422 6.86249 1.47422ZM25.5588 6.03828C25.5588 3.51772 23.5144 1.47422 20.9936 1.47422C20.4758 1.47422 20.0561 1.89395 20.0561 2.41172C20.0561 2.92949 20.4758 3.34922 20.9936 3.34922C22.4791 3.34922 23.6838 4.55344 23.6838 6.03828C23.6838 7.52312 22.4791 8.72734 20.9936 8.72734C20.4758 8.72734 20.0561 9.14708 20.0561 9.66484C20.0561 10.1826 20.4758 10.6023 20.9936 10.6023C23.5144 10.6023 25.5588 8.55884 25.5588 6.03828ZM24.6198 12.9437C24.0196 12.8083 23.3781 12.7156 22.7259 12.6707C22.2093 12.635 21.7617 13.0249 21.7261 13.5414C21.6905 14.058 22.0803 14.5056 22.5969 14.5412C23.155 14.5797 23.702 14.6587 24.2339 14.7784C25.0609 14.9407 25.6002 15.2097 25.734 15.4901C25.8347 15.7018 25.8347 15.9508 25.7331 16.165C25.601 16.4426 25.0663 16.7103 24.2509 16.878C23.7437 16.9823 23.4171 17.4779 23.5214 17.9851C23.6257 18.4922 24.1214 18.8188 24.6285 18.7145C25.9763 18.4374 26.9635 17.9432 27.4267 16.9695C27.7701 16.2455 27.7701 15.4059 27.4268 14.6838C26.9603 13.7063 25.9561 13.2053 24.6198 12.9437ZM6.13001 13.5414C6.09438 13.0249 5.64677 12.635 5.13023 12.6707C4.47799 12.7156 3.83653 12.8083 3.21056 12.9491L2.9525 13.0037C1.76798 13.2744 0.864287 13.7717 0.430521 14.6837C0.0857034 15.4051 0.0857034 16.2462 0.430884 16.9702C0.892041 17.9429 1.87926 18.4373 3.22757 18.7145C3.73472 18.8188 4.23039 18.4922 4.33468 17.9851C4.43897 17.4779 4.11238 16.9823 3.60523 16.878C2.79012 16.7104 2.2559 16.4428 2.12424 16.1652C2.02167 15.95 2.02167 15.7026 2.12298 15.4906C2.25672 15.2095 2.79542 14.9406 3.59652 14.7838L4.01305 14.6985C4.42828 14.6217 4.84062 14.5701 5.25923 14.5412C5.77577 14.5056 6.16563 14.058 6.13001 13.5414ZM5.45886 17.4807C5.45886 14.4983 8.54379 13.4494 13.9222 13.4494L14.3033 13.4512C19.4569 13.4996 22.3855 14.5509 22.3855 17.4589C22.3855 20.2985 19.5861 21.3858 14.6747 21.4829L13.9222 21.4902C8.53146 21.4902 5.45886 20.4598 5.45886 17.4807ZM20.5105 17.4589C20.5105 16.0707 18.2849 15.3244 13.9222 15.3244C9.56381 15.3244 7.33386 16.0826 7.33386 17.4807C7.33386 18.869 9.55884 19.6152 13.9222 19.6152C18.2793 19.6152 20.5105 18.8563 20.5105 17.4589Z"/>
</svg>
